<svg xmlns="http://www.w3.org/2000/svg" xmlns:xlink="http://www.w3.org/1999/xlink" width="500" zoomAndPan="magnify" viewBox="0 0 375 374.999991" height="500" preserveAspectRatio="xMidYMid meet" version="1.0"><defs><g/></defs><g fill="#8c52ff" fill-opacity="1"><g transform="translate(1.867966, 228.600542)"><g><path d="M 52.171875 0 L 2.25 0 L 2.25 -9.21875 L 34.421875 -55.34375 L 3.125 -55.34375 L 3.125 -67.09375 L 51.3125 -67.09375 L 51.3125 -57.921875 L 19.1875 -11.75 L 52.171875 -11.75 Z M 52.171875 0 "/></g></g></g><g fill="#8c52ff" fill-opacity="1"><g transform="translate(56.294461, 228.600542)"><g><path d="M 69.34375 -33.640625 C 69.34375 -22.535156 66.585938 -14 61.078125 -8.03125 C 55.578125 -2.0625 47.6875 0.921875 37.40625 0.921875 C 27.125 0.921875 19.226562 -2.0625 13.71875 -8.03125 C 8.21875 -14 5.46875 -22.566406 5.46875 -33.734375 C 5.46875 -44.898438 8.226562 -53.425781 13.75 -59.3125 C 19.269531 -65.195312 27.1875 -68.140625 37.5 -68.140625 C 47.800781 -68.140625 55.679688 -65.171875 61.140625 -59.234375 C 66.609375 -53.304688 69.34375 -44.773438 69.34375 -33.640625 Z M 20.375 -33.640625 C 20.375 -26.140625 21.796875 -20.492188 24.640625 -16.703125 C 27.484375 -12.910156 31.738281 -11.015625 37.40625 -11.015625 C 48.75 -11.015625 54.421875 -18.554688 54.421875 -33.640625 C 54.421875 -48.753906 48.78125 -56.3125 37.5 -56.3125 C 31.832031 -56.3125 27.5625 -54.40625 24.6875 -50.59375 C 21.8125 -46.78125 20.375 -41.128906 20.375 -33.640625 Z M 20.375 -33.640625 "/></g></g></g><g fill="#8c52ff" fill-opacity="1"><g transform="translate(131.096474, 228.600542)"><g><path d="M 67.96875 0 L 49.890625 0 L 20.703125 -50.75 L 20.28125 -50.75 C 20.863281 -41.789062 21.15625 -35.398438 21.15625 -31.578125 L 21.15625 0 L 8.4375 0 L 8.4375 -67.09375 L 26.390625 -67.09375 L 55.53125 -16.84375 L 55.84375 -16.84375 C 55.382812 -25.5625 55.15625 -31.722656 55.15625 -35.328125 L 55.15625 -67.09375 L 67.96875 -67.09375 Z M 67.96875 0 "/></g></g></g><g fill="#8c52ff" fill-opacity="1"><g transform="translate(207.504664, 228.600542)"><g><path d="M 36.9375 -56.21875 C 31.582031 -56.21875 27.4375 -54.203125 24.5 -50.171875 C 21.5625 -46.148438 20.09375 -40.546875 20.09375 -33.359375 C 20.09375 -18.398438 25.707031 -10.921875 36.9375 -10.921875 C 41.65625 -10.921875 47.363281 -12.097656 54.0625 -14.453125 L 54.0625 -2.53125 C 48.550781 -0.226562 42.398438 0.921875 35.609375 0.921875 C 25.847656 0.921875 18.382812 -2.035156 13.21875 -7.953125 C 8.050781 -13.878906 5.46875 -22.378906 5.46875 -33.453125 C 5.46875 -40.429688 6.734375 -46.539062 9.265625 -51.78125 C 11.804688 -57.03125 15.453125 -61.054688 20.203125 -63.859375 C 24.960938 -66.660156 30.539062 -68.0625 36.9375 -68.0625 C 43.457031 -68.0625 50.003906 -66.484375 56.578125 -63.328125 L 52 -51.765625 C 49.488281 -52.953125 46.960938 -53.988281 44.421875 -54.875 C 41.878906 -55.769531 39.382812 -56.21875 36.9375 -56.21875 Z M 36.9375 -56.21875 "/></g></g></g><g fill="#8c52ff" fill-opacity="1"><g transform="translate(267.392165, 228.600542)"><g><path d="M 8.4375 0 L 8.4375 -67.09375 L 22.671875 -67.09375 L 22.671875 -11.75 L 49.890625 -11.75 L 49.890625 0 Z M 8.4375 0 "/></g></g></g><g fill="#8c52ff" fill-opacity="1"><g transform="translate(320.487826, 228.600542)"><g><path d="M 47.078125 0 L 8.4375 0 L 8.4375 -67.09375 L 47.078125 -67.09375 L 47.078125 -55.4375 L 22.671875 -55.4375 L 22.671875 -40.703125 L 45.390625 -40.703125 L 45.390625 -29.046875 L 22.671875 -29.046875 L 22.671875 -11.75 L 47.078125 -11.75 Z M 47.078125 0 "/></g></g></g></svg>